<svg xmlns="http://www.w3.org/2000/svg" viewBox="0 0 422.29 34.51"><title>Asset 1</title><g id="Layer_2" data-name="Layer 2"><g id="Layer_1-2" data-name="Layer 1"><path d="M8.39,23.33c0,2.5,0,4.84,0,7.18,0,.84.57,1.18,1.34,1.24l2.25.18v2.58H.1L0,32.26c1.15-.62,2.61,0,3.72-1.43,0-1.49,0-3.28,0-5.07,0-4,0-8,0-12,0-.32,0-.64,0-1-.11-1.23-.58-1.7-1.82-1.79-.55,0-1.1,0-1.78,0V8.41h8.1l.31,1.85a5.61,5.61,0,0,0,.87-.68c2.83-3.28,8.89-2.19,11,1.86,1.71,3.3,1.78,9.2-.95,12.51A6.55,6.55,0,0,1,8.8,23.78C8.71,23.66,8.59,23.55,8.39,23.33Zm8.42-6.41a14.3,14.3,0,0,0-1.13-4.35,3.37,3.37,0,0,0-4.77-1.5,4.31,4.31,0,0,0-2.26,2.81,10.9,10.9,0,0,0-.39,2.59,8.92,8.92,0,0,0,.9,4.65,3.89,3.89,0,0,0,3.6,1.94,3,3,0,0,0,3-2A33.19,33.19,0,0,0,16.81,16.92Z"/><path d="M228.59,10.42V8h8.07v2.43a4.9,4.9,0,0,0,.59-.56c2.58-3.8,8.15-3.23,10.72.14,2.82,3.68,2.55,10.24-.57,13.6A6.45,6.45,0,0,1,237.17,23c0-.06-.12-.1-.36-.31,0,.77-.07,1.4-.08,2,0,1.51,0,3,0,4.55s.42,1.78,1.9,1.89l1.73.11v2.46H228.68V31.36c.78-.08,1.46-.11,2.12-.23,1-.19,1.3-.5,1.33-1.53.06-2.47.06-5,.06-7.42,0-2.92,0-5.83,0-8.75v-.36c0-2.22-.49-2.64-2.72-2.57C229.19,10.5,228.92,10.45,228.59,10.42Zm8.17,6a17.54,17.54,0,0,0,.13,1.78,10.28,10.28,0,0,0,.47,1.73,3.86,3.86,0,0,0,3.8,2.58,3.52,3.52,0,0,0,3.34-2.79,11.19,11.19,0,0,0-.11-7,3.46,3.46,0,0,0-2.71-2.6,3.65,3.65,0,0,0-3.68,1.5A6.71,6.71,0,0,0,236.76,16.42Z"/><path d="M399.92,22.76l3.15-.44a9.19,9.19,0,0,0,.38-1.75q0-4.07,0-8.15c0-1.37-.45-1.75-1.83-1.78H400V8.12h7.73l.14,2.24c.32-.3.55-.48.75-.69a6.56,6.56,0,0,1,7.44-1.73,4,4,0,0,1,2.6,3.82c.1,2.8.09,5.6.18,8.39a15.72,15.72,0,0,0,.35,2.13l3.1.45v2.33h-10.6v-2.4c.44,0,.9-.08,1.36-.14a1.35,1.35,0,0,0,1.35-1.41c0-2.76.09-5.52,0-8.27a2.73,2.73,0,0,0-3.85-2.36,3.48,3.48,0,0,0-2.32,2.25,8.18,8.18,0,0,0-.25.8,33.84,33.84,0,0,0,.13,8.47c.6.89,1.64.42,2.5.76v2.4c-3.55.15-7.06.07-10.67.08Z"/><path d="M140,19l2.45.12c-.21,1.57-.31,3-.58,4.31a3.31,3.31,0,0,1-2.13,2.29,5.06,5.06,0,0,1-6.44-2.35l-.82.81c-2.3,2.36-6.85,2.63-9.21.49a3.39,3.39,0,0,1-1-1.57c-.59-2.2,0-5,2.75-6,1.56-.59,3.2-1,4.79-1.46.69-.21,1.38-.43,2-.69a2,2,0,0,0,1.4-1.89,2.6,2.6,0,0,0-1.09-2.5,5.88,5.88,0,0,0-5.86.21,9.13,9.13,0,0,1,.83.43,2.17,2.17,0,0,1,.92,2.61,2.2,2.2,0,0,1-2.17,1.56c-1.09,0-2.13-.27-2.59-1.38a4,4,0,0,1,.51-4,5,5,0,0,1,2.62-1.8,12.38,12.38,0,0,1,7.66,0c2.51.79,3.6,2.34,3.64,5,0,2.12,0,4.24,0,6.36,0,.68,0,1.36.05,2s.12,1.39,1,1.37,1-.72,1-1.38S140,20,140,19Zm-6.94-2.34c-.81.32-1.57.57-2.28.92a19.4,19.4,0,0,0-2.6,1.45,2.72,2.72,0,0,0-.71,3c.37.8,1.27,1.07,2.48,1C132.12,22.84,134.29,20.09,133.1,16.65Z"/><path d="M328.26,25.2c-2.62.52-5.23.09-7.91.28-.07-.85-.13-1.55-.22-2.47l-.82.81c-2.62,2.64-4.83,2.57-7.78,1.48C309.72,24.63,309,22.91,309,21s0-3.68,0-5.51c0-1,.06-2,0-3a10.71,10.71,0,0,0-.4-1.7l-2.11-.35V7.9h6.72c.05.4.11.7.12,1,.07,3.51.13,7,.22,10.54.05,2.12.77,3.09,2.38,3.33a3.75,3.75,0,0,0,4-2.63,7.16,7.16,0,0,0,.32-1.77c0-2,.05-4,0-6,0-1.4-.41-1.72-1.83-1.79-.52,0-1,0-1.69,0V8h7.88q.09,7.14.19,14c1.1,1.12,2.45.35,3.56.86Z"/><path d="M39.76,17.29c-.16-5.39,3.91-9.59,9.62-9.71a9.75,9.75,0,0,1,8,3.5c3.67,4.41,3,13.34-5.3,15.28a9.9,9.9,0,0,1-10-2.86A8.52,8.52,0,0,1,39.76,17.29Zm5.14-.68a15.79,15.79,0,0,0,1.09,5A3.93,3.93,0,0,0,49.66,24a3.57,3.57,0,0,0,3.76-2.42,12.1,12.1,0,0,0-.09-9.12,3.64,3.64,0,0,0-3.61-2.31A3.62,3.62,0,0,0,46,12.49,37.19,37.19,0,0,0,44.9,16.61Z"/><path d="M90,7.64a9.34,9.34,0,0,1,9.75,8.62,9.21,9.21,0,0,1-7,10,10.14,10.14,0,0,1-9.37-1.88c-2.82-2.31-3.7-5.37-3.2-8.91a8.76,8.76,0,0,1,3.9-6.19A10.9,10.9,0,0,1,90,7.64Zm4.63,9.6a43.48,43.48,0,0,0-.92-4.43,3.48,3.48,0,0,0-3.53-2.55c-2.09,0-3.38.73-4,2.55a11.73,11.73,0,0,0,.2,8.77A3.84,3.84,0,0,0,90,24a3.69,3.69,0,0,0,3.61-2.29A13,13,0,0,0,94.64,17.24Z"/><path d="M388.62,25.78a9.39,9.39,0,0,1-8.91-13.6C381.19,8.9,384,7.32,387.47,7a9.53,9.53,0,0,1,8.14,2.67,9.16,9.16,0,0,1,2.08,10.2c-1.34,3.68-4.23,5.58-8.11,6C389.26,25.81,388.94,25.78,388.62,25.78Zm4.66-9.48c-.3-1.51-.49-2.94-.88-4.3a3.54,3.54,0,0,0-3.62-2.6,3.59,3.59,0,0,0-3.8,2.33,13.93,13.93,0,0,0-.86,3.82,10.09,10.09,0,0,0,.82,5.49,3.93,3.93,0,0,0,3.91,2.25,3.41,3.41,0,0,0,3.42-2.51C392.73,19.32,393,17.77,393.28,16.3Z"/><path d="M333.58,24l-.64,1.38h-2.66c-.21-2.48.08-4.92,0-7.47h2.87c.15.55.29,1.08.43,1.61a5.28,5.28,0,0,0,5.92,3.75,2.11,2.11,0,0,0,1.86-1.77,1.93,1.93,0,0,0-1.39-2.13c-1-.38-2-.61-3-.92-1.29-.41-2.61-.76-3.86-1.27a4.29,4.29,0,0,1-2.74-4,4.64,4.64,0,0,1,2.23-4.6,8.47,8.47,0,0,1,9.15.05l.73-.78,2.25.11a54.73,54.73,0,0,1,.19,6.8H342.4c-.22-.62-.44-1.3-.71-1.95a4.57,4.57,0,0,0-4.54-2.88,4.25,4.25,0,0,0-.94.2,1.86,1.86,0,0,0-1.3,1.58,1.58,1.58,0,0,0,.94,1.67,13.25,13.25,0,0,0,2.22.86c1.26.38,2.55.66,3.81,1a5.09,5.09,0,0,1,3.77,4.6,5.14,5.14,0,0,1-3,5.25,8.44,8.44,0,0,1-8.24-.56C334.15,24.44,333.93,24.28,333.58,24Z"/><path d="M351.46,23.94c-.24.49-.41.85-.65,1.33h-2.59V17.84H351c.11.44.21.89.33,1.35A5.24,5.24,0,0,0,357,23.25a3.18,3.18,0,0,0,1.83-.94,1.82,1.82,0,0,0-.78-2.89,17.87,17.87,0,0,0-2.5-.83c-1.26-.39-2.54-.7-3.78-1.14-1.94-.69-3.33-1.91-3.52-4.11a4.87,4.87,0,0,1,2.88-5.18A7.84,7.84,0,0,1,357.44,8c.71.25,1.4.57,2.16.88l.78-1,2.38.11v6.73h-2.42c-.25-.71-.45-1.4-.74-2a4.54,4.54,0,0,0-4.37-2.79c-1.33.06-2.19.65-2.38,1.61s.44,1.86,1.71,2.27c1.55.5,3.15.89,4.72,1.35,2.12.63,3.74,1.77,4.18,4.13a5.18,5.18,0,0,1-3.71,6.14,8.67,8.67,0,0,1-7.58-1C352,24.23,351.77,24.12,351.46,23.94Z"/><path d="M269.27,17.07h-12A4.66,4.66,0,0,0,260,22.44c2.58.87,4.58-.2,6.19-3.41h2.88a6.65,6.65,0,0,1-3.29,5.48c-3.05,1.89-9,1.74-11.88-2-3.93-5.05-1.8-13.2,4.29-15,5.56-1.64,10.34,1.2,11.05,7A24.55,24.55,0,0,1,269.27,17.07Zm-4.94-2.65a4.17,4.17,0,0,0-1.58-4.31,3.66,3.66,0,0,0-4.05.21,4.21,4.21,0,0,0-1.32,4.1Z"/><path d="M206.41,17.24H194.58c-.47,2.21.69,4.65,2.52,5.22a5.18,5.18,0,0,0,4-.3,4.41,4.41,0,0,0,2.22-3.07h3a6.58,6.58,0,0,1-3.93,5.81,9.84,9.84,0,0,1-7.26.34,7.68,7.68,0,0,1-5.45-6,10.39,10.39,0,0,1,1.12-8.2,7.63,7.63,0,0,1,6.4-3.62,8.81,8.81,0,0,1,5.21.91,6.77,6.77,0,0,1,3.36,4A13.13,13.13,0,0,1,206.41,17.24Zm-4.76-2.69c0-1.76-.19-3.33-1.78-4.26a3.38,3.38,0,0,0-3.84.12,4.07,4.07,0,0,0-1.42,4.14Z"/><path d="M70.63,11V8.29c3.21-.09,6.4-.15,9.7,0v2.46A6.55,6.55,0,0,1,79,11,2,2,0,0,0,77,12.59c-1.08,3.22-2.19,6.43-3.3,9.64-.44,1.28-.9,2.55-1.38,3.9H67.21c-.33-.85-.65-1.66-1-2.48-1.27-3.49-2.55-7-3.81-10.48-.65-1.77-.85-1.93-2.77-2-.27,0-.54-.06-.85-.1a7.81,7.81,0,0,1-.16-.85c0-.47,0-.95,0-1.61a70.16,70.16,0,0,1,11-.3V10.9l-2.46.34a4.56,4.56,0,0,0,0,1.34c1,2.79,2,5.56,3,8.34a2.65,2.65,0,0,0,.33.4c.33-.89.65-1.67.92-2.47q1-2.94,2-5.88c.48-1.43.12-1.93-1.37-2C71.64,11,71.21,11,70.63,11Z"/><path d="M189.4,8v2.44a1.27,1.27,0,0,1-.37.13c-2.05.12-2.21.25-2.89,2.19l-4,11.4c-.17.48-.4.95-.6,1.43h-5c-.73-2.07-1.44-4.06-2.14-6.05q-1.17-3.33-2.32-6.68c-.77-2.18-.79-2.2-3.13-2.35-.16,0-.31-.06-.59-.11V8h10.74c.06.88.1,1.62.15,2.45l-2.61.22a4.7,4.7,0,0,0,0,1.49c.9,2.76,1.87,5.51,2.82,8.27a3.12,3.12,0,0,0,.3.45,5.61,5.61,0,0,0,.45-.78q1.32-3.66,2.59-7.34a4.39,4.39,0,0,0,.24-.93,1,1,0,0,0-1-1.26c-.55,0-1.11,0-1.79,0V8Z"/><path d="M116.2,11.2a10.8,10.8,0,0,0-1.64-1,4.64,4.64,0,0,0-6.33,3,10.49,10.49,0,0,0,.08,7,4.19,4.19,0,0,0,5,2.92,3.68,3.68,0,0,0,3.15-2.89c.14-.58.23-1.17.36-1.85h2.7a6.43,6.43,0,0,1-1.58,5.2,7.86,7.86,0,0,1-6.14,2.75c-3.24,0-6-1-7.81-3.85a9.61,9.61,0,0,1-.51-9.83c1.61-3.31,4.47-4.86,8.08-5.12a7.75,7.75,0,0,1,6.9,2.59,4,4,0,0,1,.61,4.58,2.56,2.56,0,0,1-2.54,1.48,2.47,2.47,0,0,1-2.4-1.49,2.19,2.19,0,0,1,1.08-3C115.43,11.53,115.68,11.43,116.2,11.2Z"/><path d="M301.6,10.89a4.51,4.51,0,0,0-4.9-1.11,4.67,4.67,0,0,0-2.74,3,11.14,11.14,0,0,0,.33,7.51A4,4,0,0,0,298,22.73a3.64,3.64,0,0,0,3.65-1.82,7.75,7.75,0,0,0,.59-1.8A11.24,11.24,0,0,0,302.4,18h2.77A7,7,0,0,1,299,25.65a10.89,10.89,0,0,1-7-1.4,7.17,7.17,0,0,1-2.56-2.79c-1.83-3.22-1.95-8.86,2.05-12.11A10.4,10.4,0,0,1,299.43,7a6.89,6.89,0,0,1,5.64,4.9,3.1,3.1,0,0,1-2.3,3.85,2.63,2.63,0,0,1-3.09-1.84c-.4-1.28.14-2.21,1.64-2.85C301.42,11,301.5,11,301.6,10.89Z"/><path d="M36.15,10.46A3.14,3.14,0,0,0,33,11.65,5.25,5.25,0,0,0,31.56,15c0,2.16-.08,4.32,0,6.47,0,1.46.46,1.79,1.91,1.85.58,0,1.16.09,1.8.14v2.36c-.89.37-10.39.52-12,.17V23.37c.71,0,1.42-.05,2.12-.11,1-.09,1.37-.36,1.38-1.31,0-3.19,0-6.38,0-9.58a4.46,4.46,0,0,0-.3-.95l-3.15-.28V8.53h8.12l.25,1.69c.43-.41.75-.68,1-1,1.33-1.41,4.9-1.62,6.44.16a4.34,4.34,0,0,1,0,5.3,3,3,0,0,1-3.92-.12A2.48,2.48,0,0,1,35.51,11Z"/><path d="M141.66,10.74V8.25c4.24-.29,4.83-3.58,5.56-6.81h2.31V7.92h4.86v2.93h-4.61c-.07,1-.16,1.89-.17,2.75q0,3.35,0,6.71a6.69,6.69,0,0,0,.19,1.54,1.21,1.21,0,0,0,1.2,1,1.24,1.24,0,0,0,1.36-.95,15.5,15.5,0,0,0,.28-2.37c.05-.66,0-1.33,0-2h2.62a14.35,14.35,0,0,1-.67,6.3,3.59,3.59,0,0,1-1.93,1.88,6.12,6.12,0,0,1-6.43-1.3,4.27,4.27,0,0,1-1-2.88c0-2.51,0-5-.06-7.55,0-.95-.07-1.89-.1-2.95Z"/><path d="M279.35,22.45l3.2.39v2.43c-3.85.22-7.69.06-11.64.06V22.68c.75-.05,1.49-.09,2.23-.16a1.22,1.22,0,0,0,1.24-1.33c0-2.92.07-5.83.07-8.75a12.74,12.74,0,0,0-.28-1.77l-3.23-.28V8h7.83c.08.66.14,1.24.21,1.89.58-.52,1.08-1,1.63-1.45a4.4,4.4,0,0,1,5-.15,4,4,0,0,1,1.4,4.6,2.59,2.59,0,0,1-2.93,1.74A2.39,2.39,0,0,1,282.21,12,2.63,2.63,0,0,1,284,9.86a2.88,2.88,0,0,0-3,.51,4.17,4.17,0,0,0-1.77,2.9c-.16,2.66-.16,5.34-.19,8A4.79,4.79,0,0,0,279.35,22.45Z"/><path d="M160.18,10.76l-2.92-.2V7.92a63,63,0,0,1,8.11.08v2.53c0,3.08,0,6.15,0,9.23a11.65,11.65,0,0,0,0,1.32,1.57,1.57,0,0,0,1.61,1.6c.59.07,1.18.1,1.86.16v2.43h-11.6V22.8l3-.47C161.08,20.71,161,12.13,160.18,10.76Z"/><path d="M365.65,25.07V22.58l1.81-.12c1.39-.07,1.78-.46,1.8-1.81,0-2.64.09-5.27.08-7.91a15.57,15.57,0,0,0-.35-2.16l-3.17-.32V7.84h8c0,1.71,0,3.3,0,4.89,0,2.55-.06,5.11-.05,7.67,0,1.66.5,2.11,2.15,2.2.42,0,.84.08,1.3.13v2.34Z"/><path d="M165.69,3.11a2.58,2.58,0,0,1-2.83,2.72A2.76,2.76,0,0,1,160.1,3,2.71,2.71,0,0,1,162.75.16,2.87,2.87,0,0,1,165.69,3.11Z"/><path d="M374.16,2.88a2.42,2.42,0,0,1-2.64,2.68,2.79,2.79,0,0,1-2.84-2.88A2.54,2.54,0,0,1,371.51,0,2.63,2.63,0,0,1,374.16,2.88Z"/></g></g></svg>